<?xml version="1.0" encoding="utf-8"?>
<!-- Generator: Adobe Illustrator 16.0.0, SVG Export Plug-In . SVG Version: 6.00 Build 0)  -->
<!DOCTYPE svg PUBLIC "-//W3C//DTD SVG 1.1//EN" "http://www.w3.org/Graphics/SVG/1.1/DTD/svg11.dtd">
<svg version="1.1" xmlns="http://www.w3.org/2000/svg" xmlns:xlink="http://www.w3.org/1999/xlink" x="0px" y="0px"
	 width="1640.932px" height="301.094px" viewBox="0 0 1640.932 301.094" enable-background="new 0 0 1640.932 301.094"
	 xml:space="preserve">
<g id="Layer_1">
	<g>
		<path fill="#FFFFFF" d="M333.142,192.357v-91.67H316.53V85.394h47.285c13.065,0,23.129,0.674,30.19,2.021
			c7.06,1.349,13.9,4.395,20.522,9.141c6.621,4.746,11.909,11.265,15.864,19.556c3.955,8.292,5.933,17.74,5.933,28.345
			c0,12.071-1.905,22.559-5.713,31.465c-3.81,8.907-8.804,15.557-14.985,19.951c-6.183,4.395-13.535,7.457-22.061,9.185
			c-8.525,1.729-19.38,2.593-32.563,2.593H316.53v-15.293H333.142z M351.599,192.357h9.668c10.78,0,19.321-0.673,25.62-2.021
			c6.298-1.347,11.615-3.647,15.952-6.899c4.335-3.252,7.851-8.159,10.547-14.722c2.694-6.562,4.043-14.296,4.043-23.203
			c0-10.604-2.212-19.6-6.636-26.982c-4.425-7.383-10.079-12.202-16.963-14.458c-6.886-2.255-17.477-3.384-31.772-3.384h-10.459
			V192.357z"/>
		<path fill="#FFFFFF" d="M545.046,192.796v14.854h-31.377v-9.756c-9.786,7.442-19.16,11.162-28.125,11.162
			c-5.684,0-10.386-1.246-14.106-3.735c-3.722-2.49-6.196-5.713-7.427-9.668s-1.846-10.327-1.846-19.116v-39.111h-12.041v-14.854
			h28.74v51.855c0,6.271,0.176,10.489,0.527,12.656c0.352,2.168,1.376,3.955,3.076,5.361c1.699,1.406,3.837,2.109,6.416,2.109
			c7.734,0,15.996-3.691,24.785-11.074v-46.055H498.64v-14.854h31.729v70.225H545.046z"/>
		<path fill="#FFFFFF" d="M633.815,122.572v32.168h-14.941c-0.762-6.152-3.267-10.868-7.515-14.15
			c-4.249-3.281-9.185-4.922-14.81-4.922c-7.501,0-13.594,2.652-18.281,7.954c-4.688,5.304-7.031,12.261-7.031,20.874
			c0,8.028,2.227,15.104,6.68,21.226c4.452,6.124,10.898,9.185,19.336,9.185c11.719,0,20.215-5.566,25.488-16.699l13.799,6.504
			c-7.617,16.934-20.948,25.4-39.99,25.4c-13.478,0-24.082-4.599-31.816-13.799c-7.734-9.198-11.602-19.804-11.602-31.816
			c0-12.832,4.219-23.423,12.656-31.772s18.163-12.524,29.18-12.524c9.434,0,17.402,2.784,23.906,8.35v-5.977H633.815z"/>
		<path fill="#FFFFFF" d="M660.271,192.796v-92.549h-15.293V85.394h31.992v76.377l31.816-25.4h-14.15v-13.799h47.021v13.799h-13.008
			l-31.904,26.543l29.971,29.883h14.941v14.854h-21.885l-42.803-42.803v27.949h14.678v14.854h-46.67v-14.854H660.271z"/>
		<path fill="#FFFFFF" d="M762.663,192.357v-91.67h-16.611V85.394h47.285c13.065,0,23.129,0.674,30.19,2.021
			c7.061,1.349,13.9,4.395,20.522,9.141c6.621,4.746,11.909,11.265,15.864,19.556c3.955,8.292,5.933,17.74,5.933,28.345
			c0,12.071-1.904,22.559-5.713,31.465c-3.81,8.907-8.804,15.557-14.985,19.951c-6.183,4.395-13.535,7.457-22.061,9.185
			c-8.525,1.729-19.38,2.593-32.563,2.593h-44.473v-15.293H762.663z M781.12,192.357h9.668c10.78,0,19.321-0.673,25.62-2.021
			c6.298-1.347,11.615-3.647,15.952-6.899c4.336-3.252,7.852-8.159,10.547-14.722c2.694-6.562,4.043-14.296,4.043-23.203
			c0-10.604-2.212-19.6-6.636-26.982c-4.425-7.383-10.078-12.202-16.963-14.458c-6.886-2.255-17.477-3.384-31.772-3.384H781.12
			V192.357z"/>
		<path fill="#FFFFFF" d="M974.567,192.796v14.854H943.19v-9.756c-9.786,7.442-19.16,11.162-28.125,11.162
			c-5.684,0-10.386-1.246-14.106-3.735c-3.722-2.49-6.196-5.713-7.427-9.668s-1.846-10.327-1.846-19.116v-39.111h-12.041v-14.854
			h28.74v51.855c0,6.271,0.176,10.489,0.527,12.656c0.352,2.168,1.376,3.955,3.076,5.361c1.699,1.406,3.837,2.109,6.416,2.109
			c7.734,0,15.996-3.691,24.785-11.074v-46.055h-15.029v-14.854h31.729v70.225H974.567z"/>
		<path fill="#FFFFFF" d="M1063.337,122.572v32.168h-14.941c-0.762-6.152-3.267-10.868-7.515-14.15
			c-4.249-3.281-9.185-4.922-14.81-4.922c-7.501,0-13.594,2.652-18.281,7.954c-4.688,5.304-7.031,12.261-7.031,20.874
			c0,8.028,2.227,15.104,6.68,21.226c4.452,6.124,10.898,9.185,19.336,9.185c11.719,0,20.215-5.566,25.488-16.699l13.799,6.504
			c-7.617,16.934-20.948,25.4-39.99,25.4c-13.478,0-24.082-4.599-31.816-13.799c-7.734-9.198-11.602-19.804-11.602-31.816
			c0-12.832,4.219-23.423,12.656-31.772s18.163-12.524,29.18-12.524c9.434,0,17.402,2.784,23.906,8.35v-5.977H1063.337z"/>
		<path fill="#FFFFFF" d="M1089.792,192.796v-92.549h-15.293V85.394h31.992v76.377l31.816-25.4h-14.15v-13.799h47.021v13.799
			h-13.008l-31.904,26.543l29.971,29.883h14.941v14.854h-21.885l-42.803-42.803v27.949h14.678v14.854h-46.67v-14.854H1089.792z"/>
		<path fill="#FFFFFF" d="M1285.524,157.904l15.908,8.877c-3.574,13.594-10.797,24.126-21.664,31.597
			c-10.869,7.471-23.366,11.206-37.486,11.206c-18.516,0-33.369-6.005-44.561-18.018c-11.192-12.011-16.787-26.864-16.787-44.561
			c0-19.394,5.625-34.833,16.875-46.318c11.25-11.483,25.928-17.227,44.033-17.227c15.996,0,29.443,4.366,40.342,13.096V85.394
			h15.82v39.287h-15.82c-3.516-7.968-8.936-14.135-16.26-18.501c-7.325-4.364-15.029-6.548-23.115-6.548
			c-12.188,0-22.192,4.395-30.015,13.184s-11.733,19.894-11.733,33.311c0,13.77,4.188,25.02,12.568,33.75
			c8.379,8.731,18.311,13.096,29.795,13.096c9.434,0,18.018-3.032,25.752-9.097S1282.36,169.154,1285.524,157.904z"/>
		<path fill="#FFFFFF" d="M1316.901,165.111c0-13.125,4.336-23.891,13.008-32.3c8.671-8.407,19.248-12.612,31.729-12.612
			c12.246,0,22.764,4.146,31.553,12.437c8.789,8.292,13.184,19.116,13.184,32.476s-4.381,24.2-13.14,32.52
			c-8.76,8.321-19.292,12.48-31.597,12.48c-12.656,0-23.277-4.219-31.86-12.656C1321.193,189.017,1316.901,178.237,1316.901,165.111
			z M1334.567,165.067c0,8.397,2.622,15.279,7.866,20.646c5.243,5.367,11.646,8.05,19.204,8.05c7.676,0,14.106-2.712,19.292-8.138
			c5.186-5.424,7.778-12.277,7.778-20.558c0-8.339-2.637-15.205-7.91-20.602c-5.273-5.396-11.66-8.094-19.16-8.094
			c-7.853,0-14.326,2.758-19.424,8.27C1337.116,150.154,1334.567,156.963,1334.567,165.067z"/>
		<path fill="#FFFFFF" d="M1525.29,192.796v14.854h-31.992v-12.48c-8.32,9.259-18.457,13.887-30.41,13.887
			c-11.074,0-20.801-3.779-29.18-11.338c-8.38-7.559-12.568-18.31-12.568-32.256c0-14.003,4.307-25.049,12.92-33.135
			s18.339-12.129,29.18-12.129c11.483,0,21.503,4.57,30.059,13.711v-33.662h-16.348V85.394h33.047v107.402H1525.29z
			 M1438.981,165.023c0,9.375,2.65,16.583,7.954,21.621c5.303,5.04,11.646,7.559,19.028,7.559c7.148,0,13.491-2.65,19.028-7.954
			c5.537-5.302,8.306-12.641,8.306-22.017c0-9.433-2.827-16.552-8.481-21.357c-5.655-4.804-11.997-7.207-19.028-7.207
			c-7.559,0-13.917,2.828-19.072,8.481C1441.56,149.804,1438.981,156.761,1438.981,165.023z"/>
		<path fill="#FFFFFF" d="M1622.233,169.33h-71.543c1.055,7.853,4.16,14.209,9.316,19.072c5.155,4.864,11.747,7.295,19.775,7.295
			c11.659,0,20.888-4.687,27.686-14.063l14.766,6.504c-4.805,7.442-11.045,12.964-18.721,16.567
			c-7.677,3.604-15.703,5.405-24.082,5.405c-13.008,0-24.126-4.057-33.354-12.173c-9.229-8.115-13.843-19.057-13.843-32.827
			c0-13.065,4.496-23.818,13.491-32.256c8.994-8.438,19.321-12.656,30.981-12.656c11.426,0,21.782,4.117,31.069,12.349
			C1617.062,140.78,1621.882,153.041,1622.233,169.33z M1605.007,157.201c-1.173-5.977-4.277-11.382-9.316-16.216
			c-5.04-4.834-11.221-7.251-18.545-7.251c-6.68,0-12.393,2.184-17.139,6.548c-4.746,4.366-7.646,10.006-8.701,16.919H1605.007z"/>
	</g>
</g>
<g id="Layer_2">
	<g>
		<path fill="#FBE512" stroke="#000000" stroke-width="5" stroke-miterlimit="10" d="M118.236,56.647
			c45.824-81.313,185.293-45.82,166.049,74.779c-1.5,14.621-21.246,29.369-23.621,33.368c-2.375,3.998,2.708,9.493,2.708,9.493
			s13.663,12.752,18.287,27.624c3.875,15.497,3.238,21.139,0.542,38.032c-3.708,19.409-20.413,35.577-39.658,40.452
			c-19.246,4.874-73.609,8.247-146.468,4.537c-73.735-6.412-81.733-65.899-80.483-103.391c1.249-37.493,14.997-46.241,21.995-49.489
			c6.999-3.25,15.995-1.781,29.077-1.083c13.082,0.696,33.535-1.292,40.075-3.17c6.541-1.88,3.167-19.164,3.167-19.164
			S105.073,79.646,118.236,56.647"/>
		<path fill="none" stroke="#000000" stroke-width="5" stroke-miterlimit="10" d="M43.419,167.959
			c4.416-1.917,58.779-3.791,68.527-0.916c9.748,2.874,23.454,10.414,29.286,19.078c5.832,8.666,8.55,17.176,4.378,30.98
			c-4.171,13.804-30.707,26.342-61.367,27.008c-30.66,0.666-44.656-21.203-47.531-26.077c-2.874-4.874-8.79-21.246-4.624-34.077
			C36.254,171.125,43.419,167.959,43.419,167.959"/>
		<path fill="#F7941E" stroke="#000000" stroke-width="4" stroke-miterlimit="10" d="M272.454,110.722
			c-6.415,0.25-13.164,12.913-20.079,15.83c-6.384,2.832-15.133,4.416-15.966,7.998c-0.833,3.583,3.968,14.165,14.05,19.246
			c10.081,5.082,31.925,6,36.159,5.416c4.232-0.584,14.081-2.833,13.747-7.081c-0.169-2.152-3.857-3.727-7.249-6.749
			c-3.392-3.022-6.645-7.629-8.249-11.249C281.619,126.801,278.87,110.472,272.454,110.722z"/>
		<path fill="none" stroke="#000000" stroke-width="4" stroke-linecap="round" stroke-miterlimit="10" d="M244.231,138.549
			c24.183,17.997,55.67,12.386,55.67,12.386"/>
		<circle stroke="#000000" stroke-miterlimit="10" cx="218.633" cy="105.473" r="15.205"/>
		<ellipse fill="#FFFFFF" cx="224.463" cy="99.39" rx="3.791" ry="4.5"/>
		
			<ellipse fill="#BCBEC0" stroke="#000000" stroke-width="4" stroke-linecap="round" stroke-miterlimit="10" cx="126.608" cy="92.434" rx="11.422" ry="19.745"/>
		<path fill="none" stroke="#000000" stroke-width="6" stroke-linecap="round" stroke-miterlimit="10" d="M122.319,88.06
			c4.289-60.238,65.237-72.734,65.237-72.734"/>
		<circle stroke="#000000" stroke-width="3" stroke-linecap="round" stroke-miterlimit="10" cx="125.444" cy="91.309" r="5.374"/>
		<path fill="none" stroke="#000000" stroke-width="4" stroke-linecap="round" stroke-miterlimit="10" d="M123.069,92.434
			c30.368,44.99,45.741,38.492,45.741,38.492"/>
	</g>
	<g>
	</g>
	<g>
	</g>
	<g>
	</g>
	<g>
	</g>
	<g>
	</g>
	<g>
	</g>
</g>
</svg>
